# xmcd CD database file
#
# Track frame offsets:
#	150
#	17567
#	34980
#	54026
#	65298
#	76345
#	88441
#	103336
#	116282
#	131516
#	140826
#	155260
#	171120
#	184104
#	198614
#	216136
#	237657
#	255954
#	273495
#	295804
#	312398
#
# Disc length: 4411 seconds
#
# Revision: 2
# Processed by: cddbd v1.4b41PL1 Copyright (c) Steve Scherf et al.
# Submitted via: Feurio! 1.50.2ß - http://www.feurio.com
#
DISCID=32113915
DTITLE=Various Artist - Romantic Collection Disco [CD 2]
DYEAR=1900
DGENRE=
TTITLE0=Space - Just Blue
TTITLE1=Mr Zivago - Little Russian
TTITLE2=GRB - Marrakesh
TTITLE3=Christie - Yellow River
TTITLE4=Joe Dassin - Le Chemin De Pa Pa
TTITLE5=Rafealla Carra - Do It Do It Again
TTITLE6=Julio Iglesias - Amor
TTITLE7=Afric Simone - Hafanana
TTITLE8=Kaoma - Dancando Lambada
TTITLE9=Los Lobos - Cancion De Mariachi
TTITLE10=Afric Simone - To Do Pasara Maria
TTITLE11=Maywood - Pasedena
TTITLE12=Vaya Con Dios - Nah Nah Nah
TTITLE13=Al Bano and Romino Power - Felichita
TTITLE14=Toto Cutugno - I'italiano
TTITLE15=Art Company - Suzana
TTITLE16=Opus - Life Is Life
TTITLE17=Bobby McFerryn - Don't Worry Be Happy
TTITLE18=Mary Hopkins - Those Were The Days
TTITLE19=Joe Esposito - Lady, Lady
TTITLE20=Symphinic Rock Orchestra - Lady In Red
EXTD=
EXTT0=
EXTT1=
EXTT2=
EXTT3=
EXTT4=
EXTT5=
EXTT6=
EXTT7=
EXTT8=
EXTT9=
EXTT10=
EXTT11=
EXTT12=
EXTT13=
EXTT14=
EXTT15=
EXTT16=
EXTT17=
EXTT18=
EXTT19=
EXTT20=
PLAYORDER=
